<?xml version="1.0" encoding="UTF-8" standalone="no"?>
<!-- Generator: Adobe Illustrator 13.0.1, SVG Export Plug-In  -->

<svg
   xmlns:dc="http://purl.org/dc/elements/1.1/"
   xmlns:cc="http://creativecommons.org/ns#"
   xmlns:rdf="http://www.w3.org/1999/02/22-rdf-syntax-ns#"
   xmlns:svg="http://www.w3.org/2000/svg"
   xmlns="http://www.w3.org/2000/svg"
   xmlns:sodipodi="http://sodipodi.sourceforge.net/DTD/sodipodi-0.dtd"
   xmlns:inkscape="http://www.inkscape.org/namespaces/inkscape"
   version="1.1"
   x="0px"
   y="0px"
   width="300"
   height="43"
   viewBox="-0.835 -0.509 300 43"
   enable-background=""
   xml:space="preserve"
   id="svg3060"
   inkscape:version="0.48.1 "
   sodipodi:docname="astrazenecalogotext.svg">
   <metadata id="metadata3090">
      <rdf:RDF><cc:Work rdf:about="">
                  <dc:format>image/svg+xml</dc:format>
                  <dc:type rdf:resource="http://purl.org/dc/dcmitype/StillImassge" />
               </cc:Work>
      </rdf:RDF>
      </metadata>
   <sodipodi:namedview
   pagecolor="#000000"
   bordercolor="#000000"
   borderopacity="1"
   objecttolerance="10"
   gridtolerance="10"
   guidetolerance="10"
   inkscape:pageopacity="0"
   inkscape:pageshadow="2"
   inkscape:window-width="1366"
   inkscape:window-height="706"
   id="namedview3088"
   showgrid="false"
   inkscape:zoom="2.5531915"
   inkscape:cx="195.40195"
   inkscape:cy="24"
   inkscape:window-x="0"
   inkscape:window-y="0"
   inkscape:window-maximized="1"
   inkscape:current-layer="svg3060" />
<defs
   id="defs3062">
</defs>


<g
   id="g3092"
   transform="matrix(1.9459739,0,0,1.9459739,1.6500001,-48.738818)"><path
     style="fill:#bbc0d8;fill-opacity:0.7;fill-rule:evenodd"
     inkscape:connector-curvature="0"
     id="path3064"
     d="m 5.96,37.199 3.081,-8.366 2.939,8.366 H 5.96 l 0,0 z m 9.014,8.431 h 2.825 L 10.467,25.491 H 7.673 L 0,45.63 h 2.852 l 2.253,-6.172 h 7.673 l 2.196,6.172 0,0 z"
     clip-rule="evenodd" /><path
     style="fill:#bbc0d8;fill-opacity:0.7;fill-rule:evenodd"
     inkscape:connector-curvature="0"
     id="path3066"
     d="m 23.941,38.675 c -2.618,-0.566 -5.322,-1.184 -5.322,-4.342 0,-2.773 2.345,-4.521 5.887,-4.521 2.291,0 4.479,0.853 5.571,2.938 l -2.382,0.994 c -0.191,-0.557 -1.424,-1.959 -3.481,-1.959 -2.016,0 -3.025,1.193 -3.025,2.226 0,1.45 1.917,2.054 3.552,2.383 3.385,0.681 6.328,1.547 6.328,4.738 0,2.48 -2.203,4.81 -6.411,4.81 -3.098,0 -5.299,-1.036 -6.358,-3.201 l 2.717,-0.474 c 0.682,1.186 1.915,1.7 3.752,1.7 2.278,0 3.61,-0.869 3.61,-2.514 10e-4,-1.74 -2.185,-2.291 -4.438,-2.778 l 0,0 z"
     clip-rule="evenodd" /><path
     style="fill:#bbc0d8;fill-opacity:0.7;fill-rule:evenodd"
     inkscape:connector-curvature="0"
     id="path3068"
     d="m 36.711,30.276 h 2.782 v 2.141 h -2.782 v 8.712 c 0,1.807 0,2.582 1.099,2.582 0.485,0 1.166,-0.195 1.683,-0.355 v 2.12 C 39.04,45.54 37.971,45.734 37,45.734 c -2.975,0 -2.975,-1.446 -2.943,-3.442 V 32.417 H 31.63 v -2.141 h 2.427 v -3.658 l 2.654,-1.104 v 4.762 l 0,0 z"
     clip-rule="evenodd" /><path
     style="fill:#bbc0d8;fill-opacity:0.7;fill-rule:evenodd"
     inkscape:connector-curvature="0"
     id="path3070"
     d="m 44.381,30.315 v 2.742 c 1.455,-2.893 4.206,-2.958 5.241,-2.99 v 2.653 c -2.523,0.017 -3.76,0.534 -4.593,1.891 -0.684,1.108 -0.648,2.665 -0.648,3.98 V 45.63 H 41.812 V 30.315 h 2.569 l 0,0 z"
     clip-rule="evenodd" /><polygon
     style="fill:#bbc0d8;fill-opacity:0.7;fill-rule:evenodd"
     id="polygon3072"
     points="64.827,25.494 79.327,25.494 79.327,25.494 79.327,28.006 67.929,43.214 79.613,43.214 79.613,45.63 64.818,45.63 64.818,43.014 76.272,27.977 64.827,27.977 "
     clip-rule="evenodd" /><path
     style="fill:#bbc0d8;fill-opacity:0.7;fill-rule:evenodd"
     inkscape:connector-curvature="0"
     id="path3074"
     d="m 98.289,30.421 v 2.225 c 1.43,-2.5 3.866,-2.727 4.775,-2.727 1.949,0 4.284,0.975 5.029,3.502 0.261,0.904 0.261,1.841 0.261,3.134 v 9.075 h -2.562 v -8.655 c 0,-1.552 0,-2.003 -0.163,-2.521 -0.454,-1.453 -1.883,-2.099 -3.28,-2.099 -1.136,0 -2.111,0.355 -2.924,1.162 -1.137,1.131 -1.137,2.292 -1.137,3.426 v 8.687 h -2.57 V 30.421 h 2.571 l 0,0 z"
     clip-rule="evenodd" /><path
     style="fill:#bbc0d8;fill-opacity:0.7;fill-rule:evenodd"
     inkscape:connector-curvature="0"
     id="path3076"
     d="m 137.907,42.919 c -0.959,1.506 -2.701,3.022 -5.837,3.022 -5.412,0 -7.456,-4.171 -7.456,-7.918 0,-4.329 2.355,-8.252 7.23,-8.252 1.912,0 4.59,0.576 6.072,3.045 l -2.408,1.005 c -0.455,-1.003 -1.435,-2.162 -3.567,-2.162 -4.224,0 -4.471,4.813 -4.471,6.171 0,5.046 2.899,6.137 4.631,6.137 1.983,0 2.996,-0.951 3.531,-1.999 l 2.275,0.951 0,0 z"
     clip-rule="evenodd" /><path
     style="fill:#bbc0d8;fill-opacity:0.7;fill-rule:evenodd"
     inkscape:connector-curvature="0"
     id="path3078"
     d="m 83.305,36.405 h 8.121 c -0.227,-4.006 -2.536,-4.683 -4.076,-4.683 -2.198,10e-4 -3.755,1.614 -4.045,4.683 l 0,0 z m 10.235,6.316 c -0.876,1.491 -2.567,3.202 -5.901,3.202 -4.52,0 -7.12,-3.072 -7.12,-8.222 0,-5.753 3.795,-7.952 7.025,-7.952 2.808,0 5.5,1.552 6.405,5.396 0.292,1.293 0.292,2.459 0.292,3.106 h -11 c -0.064,2.558 1.008,5.795 4.625,5.732 1.476,-0.025 2.515,-0.695 3.178,-1.745 l 2.496,0.483 0,0 z"
     clip-rule="evenodd" /><path
     style="fill:#bbc0d8;fill-opacity:0.7;fill-rule:evenodd"
     inkscape:connector-curvature="0"
     id="path3080"
     d="m 112.518,36.405 h 8.122 c -0.226,-4.006 -2.535,-4.683 -4.076,-4.683 -2.196,10e-4 -3.754,1.614 -4.046,4.683 l 0,0 z m 10.237,6.316 c -0.876,1.491 -2.566,3.202 -5.9,3.202 -4.52,0 -7.121,-3.072 -7.121,-8.222 0,-5.753 3.795,-7.952 7.024,-7.952 2.809,0 5.499,1.552 6.405,5.396 0.291,1.293 0.291,2.459 0.291,3.106 h -11 c -0.065,2.558 1.011,5.795 4.625,5.732 1.476,-0.025 2.518,-0.695 3.179,-1.745 l 2.497,0.483 0,0 z"
     clip-rule="evenodd" /><path
     style="fill:#bbc0d8;fill-opacity:0.7;fill-rule:evenodd"
     inkscape:connector-curvature="0"
     id="path3082"
     d="m 151.951,45.646 -2.672,0.01 c 0,0 -0.231,-1.079 -0.306,-2.257 -0.776,0.806 -2.216,2.473 -5.126,2.473 -2.976,0 -5.184,-1.765 -5.184,-4.351 0,-0.811 0.227,-1.618 0.681,-2.3 0.877,-1.295 2.5,-2.331 7.059,-2.686 l 2.423,-0.194 v -0.389 c 0,-1.586 0,-4.239 -3.416,-4.239 -2.149,0 -2.881,1.042 -3.129,1.983 l -2.366,-0.988 c 0.037,-0.082 0.08,-0.166 0.125,-0.251 0.909,-1.682 2.692,-2.718 5.271,-2.718 1.42,0 3.258,0.357 4.456,1.295 1.705,1.292 1.664,3.837 1.664,3.837 l 0.103,7.854 c 0,0.002 0.091,2.282 0.417,2.921 l 0,0 z m -3.513,-4.222 c 0.388,-0.841 0.421,-1.197 0.421,-3.433 -1,0.162 -2.353,0.356 -4.009,0.713 -2.846,0.614 -3.331,1.686 -3.331,2.753 0,1.23 0.971,2.267 2.878,2.267 1.78,0 3.299,-0.712 4.041,-2.3 l 0,0 z"
     clip-rule="evenodd" /><path
     style="fill:#bbc0d8;fill-opacity:0.7;fill-rule:evenodd"
     inkscape:connector-curvature="0"
     id="path3084"
     d="m 63.004,45.646 -2.672,0.01 c 0,0 -0.232,-1.079 -0.306,-2.257 -0.776,0.806 -2.214,2.473 -5.125,2.473 -2.978,0 -5.185,-1.765 -5.185,-4.351 0,-0.811 0.227,-1.618 0.682,-2.3 0.877,-1.295 2.499,-2.331 7.056,-2.686 l 2.426,-0.194 v -0.389 c 0,-1.586 0,-4.239 -3.418,-4.239 -2.149,0 -2.879,1.042 -3.129,1.983 l -2.366,-0.988 c 0.039,-0.082 0.08,-0.166 0.126,-0.251 0.909,-1.682 2.693,-2.718 5.27,-2.718 1.419,0 3.259,0.357 4.456,1.295 1.705,1.292 1.664,3.837 1.664,3.837 l 0.103,7.854 c 0,0.002 0.091,2.282 0.418,2.921 l 0,0 z m -3.513,-4.222 c 0.39,-0.841 0.42,-1.197 0.42,-3.433 -0.998,0.162 -2.353,0.356 -4.007,0.713 -2.844,0.614 -3.33,1.686 -3.33,2.753 0,1.23 0.969,2.267 2.876,2.267 1.779,0 3.298,-0.712 4.041,-2.3 l 0,0 z"
     clip-rule="evenodd" /></g>

</svg>
